<?xml version="1.0" encoding="UTF-8" standalone="no"?>
<svg
   xmlns:dc="http://purl.org/dc/elements/1.1/"
   xmlns:cc="http://creativecommons.org/ns#"
   xmlns:rdf="http://www.w3.org/1999/02/22-rdf-syntax-ns#"
   xmlns:svg="http://www.w3.org/2000/svg"
   xmlns="http://www.w3.org/2000/svg"
   xmlns:sodipodi="http://sodipodi.sourceforge.net/DTD/sodipodi-0.dtd"
   xmlns:inkscape="http://www.inkscape.org/namespaces/inkscape"
   height="400mm"
   id="svg1"
   version="1.1"
   viewBox="0 0 600 400"
   width="600mm"
   sodipodi:docname="output2.svg"
   inkscape:version="0.92.1 r15371">
  <metadata
     id="metadata4531">
    <rdf:RDF>
      <cc:Work
         rdf:about="">
        <dc:format>image/svg+xml</dc:format>
        <dc:type
           rdf:resource="http://purl.org/dc/dcmitype/StillImage" />
        <dc:title></dc:title>
      </cc:Work>
    </rdf:RDF>
  </metadata>
  <defs
     id="defs4529" />
  <sodipodi:namedview
     pagecolor="#ffffff"
     bordercolor="#666666"
     borderopacity="1"
     objecttolerance="10"
     gridtolerance="10"
     guidetolerance="10"
     inkscape:pageopacity="0"
     inkscape:pageshadow="2"
     inkscape:window-width="1920"
     inkscape:window-height="1001"
     id="namedview4527"
     showgrid="false"
     inkscape:zoom="0.26722917"
     inkscape:cx="1082.8999"
     inkscape:cy="595.52358"
     inkscape:window-x="-9"
     inkscape:window-y="-9"
     inkscape:window-maximized="1"
     inkscape:current-layer="Lines" />
  <g
     id="Lines"
     inkscape:groupmode="layer"
     inkscape:label="Lines">
    <path
       d="M 289.969490 143.759490 L 265.417773 125.587811 "
       fill="none"
       id="path1"
       style="stroke:#00ff00;stroke-width:0.254;stroke-linecap:butt;stroke-linejoin:miter;stroke-opacity:1" />
    <path
       d="M 211.469482 125.499925 L 184.616961 141.267496 "
       fill="none"
       id="path2"
       style="stroke:#00ff00;stroke-width:0.254;stroke-linecap:butt;stroke-linejoin:miter;stroke-opacity:1" />
    <path
       d="M 308.561035 217.365987 L 308.561042 217.300557 "
       fill="none"
       id="path3"
       style="stroke:#00ff00;stroke-width:0.254;stroke-linecap:butt;stroke-linejoin:miter;stroke-opacity:1" />
    <path
       d="M 108.560654 217.410573 L 308.561035 217.365987 "
       fill="none"
       id="path4"
       style="stroke:#00ff00;stroke-width:0.254;stroke-linecap:butt;stroke-linejoin:miter;stroke-opacity:1" />
    <path
       d="M 308.561042 217.300557 L 304.596617 177.612586 "
       fill="none"
       id="path5"
       style="stroke:#00ff00;stroke-width:0.254;stroke-linecap:butt;stroke-linejoin:miter;stroke-opacity:1" />
    <path
       d="M 108.539854 178.913496 L 108.548661 217.344166 "
       fill="none"
       id="path6"
       style="stroke:#00ff00;stroke-width:0.254;stroke-linecap:butt;stroke-linejoin:miter;stroke-opacity:1" />
    <path
       d="M 162.383719 170.981870 L 118.065720 170.977035 "
       fill="none"
       id="path7"
       style="stroke:#00ff00;stroke-width:0.254;stroke-linecap:butt;stroke-linejoin:miter;stroke-opacity:1" />
    <path
       d="M 388.569416 140.545829 L 308.569417 140.537101 "
       fill="none"
       id="path8"
       style="stroke:#00ff00;stroke-width:0.254;stroke-linecap:butt;stroke-linejoin:miter;stroke-opacity:1" />
    <path
       d="M 308.569417 140.537101 L 308.565393 177.415074 "
       fill="none"
       id="path9"
       style="stroke:#00ff00;stroke-width:0.254;stroke-linecap:butt;stroke-linejoin:miter;stroke-opacity:1" />
    <path
       d="M 308.565393 177.415074 L 388.565393 177.423802 "
       fill="none"
       id="path10"
       style="stroke:#00ff00;stroke-width:0.254;stroke-linecap:butt;stroke-linejoin:miter;stroke-opacity:1" />
    <path
       d="M 388.565393 177.423802 L 388.569416 140.545829 "
       fill="none"
       id="path11"
       style="stroke:#00ff00;stroke-width:0.254;stroke-linecap:butt;stroke-linejoin:miter;stroke-opacity:1" />
    <path
       d="M 388.572749 110.000834 L 308.572749 109.992106 "
       fill="none"
       id="path12"
       style="stroke:#00ff00;stroke-width:0.254;stroke-linecap:butt;stroke-linejoin:miter;stroke-opacity:1" />
    <path
       d="M 512.521709 141.303270 L 485.672630 125.529841 "
       fill="none"
       id="path13"
       style="stroke:#00ff00;stroke-width:0.254;stroke-linecap:butt;stroke-linejoin:miter;stroke-opacity:1" />
    <path
       d="M 431.724322 125.605955 L 407.168639 143.772276 "
       fill="none"
       id="path14"
       style="stroke:#00ff00;stroke-width:0.254;stroke-linecap:butt;stroke-linejoin:miter;stroke-opacity:1" />
    <path
       d="M 388.561041 217.309285 L 388.561034 217.374715 "
       fill="none"
       id="path15"
       style="stroke:#00ff00;stroke-width:0.254;stroke-linecap:butt;stroke-linejoin:miter;stroke-opacity:1" />
    <path
       d="M 392.534126 177.622180 L 388.561041 217.309285 "
       fill="none"
       id="path16"
       style="stroke:#00ff00;stroke-width:0.254;stroke-linecap:butt;stroke-linejoin:miter;stroke-opacity:1" />
    <path
       d="M 388.561041 217.309285 L 308.561042 217.300557 "
       fill="none"
       id="path17"
       style="stroke:#00ff00;stroke-width:0.254;stroke-linecap:butt;stroke-linejoin:miter;stroke-opacity:1" />
    <path
       d="M 388.561034 217.374715 L 588.561401 217.462941 "
       fill="none"
       id="path18"
       style="stroke:#00ff00;stroke-width:0.254;stroke-linecap:butt;stroke-linejoin:miter;stroke-opacity:1" />
    <path
       d="M 588.573408 217.396537 L 588.590601 178.965869 "
       fill="none"
       id="path19"
       style="stroke:#00ff00;stroke-width:0.254;stroke-linecap:butt;stroke-linejoin:miter;stroke-opacity:1" />
    <path
       d="M 579.066467 171.027330 L 534.748467 171.022495 "
       fill="none"
       id="path20"
       style="stroke:#00ff00;stroke-width:0.254;stroke-linecap:butt;stroke-linejoin:miter;stroke-opacity:1" />
    <path
       d="M 4.998854 0.021026 L 5.011217 53.969387 "
       fill="none"
       id="path21"
       style="stroke:#00ff00;stroke-width:0.254;stroke-linecap:butt;stroke-linejoin:miter;stroke-opacity:1" />
    <path
       d="M 5.011217 53.969387 L 85.011215 53.951054 "
       fill="none"
       id="path22"
       style="stroke:#00ff00;stroke-width:0.254;stroke-linecap:butt;stroke-linejoin:miter;stroke-opacity:1" />
    <path
       d="M 85.011215 53.951054 L 84.998852 0.002693 "
       fill="none"
       id="path23"
       style="stroke:#00ff00;stroke-width:0.254;stroke-linecap:butt;stroke-linejoin:miter;stroke-opacity:1" />
    <path
       d="M 5.048664 217.367885 L 85.048662 217.349552 "
       fill="none"
       id="path24"
       style="stroke:#00ff00;stroke-width:0.254;stroke-linecap:butt;stroke-linejoin:miter;stroke-opacity:1" />
    <path
       d="M 85.039854 178.918881 L 5.039856 178.937215 "
       fill="none"
       id="path25"
       style="stroke:#00ff00;stroke-width:0.254;stroke-linecap:butt;stroke-linejoin:miter;stroke-opacity:1" />
    <path
       d="M 85.039854 178.918881 L 85.037013 166.520110 "
       fill="none"
       id="path26"
       style="stroke:#00ff00;stroke-width:0.254;stroke-linecap:butt;stroke-linejoin:miter;stroke-opacity:1" />
    <path
       d="M 85.037013 166.520110 L 5.037015 166.538444 "
       fill="none"
       id="path27"
       style="stroke:#00ff00;stroke-width:0.254;stroke-linecap:butt;stroke-linejoin:miter;stroke-opacity:1" />
    <path
       d="M 5.037015 166.538444 L 5.039856 178.937215 "
       fill="none"
       id="path28"
       style="stroke:#00ff00;stroke-width:0.254;stroke-linecap:butt;stroke-linejoin:miter;stroke-opacity:1" />
    <path
       d="M 85.026857 122.202112 L 5.026859 122.220445 "
       fill="none"
       id="path29"
       style="stroke:#00ff00;stroke-width:0.254;stroke-linecap:butt;stroke-linejoin:miter;stroke-opacity:1" />
    <path
       d="M 5.018354 85.108978 L 85.018352 85.090644 "
       fill="none"
       id="path30"
       style="stroke:#00ff00;stroke-width:0.254;stroke-linecap:butt;stroke-linejoin:miter;stroke-opacity:1" />
    <path
       d="M 5.018354 85.108978 L 5.026859 122.220445 "
       fill="none"
       id="path31"
       style="stroke:#00ff00;stroke-width:0.254;stroke-linecap:butt;stroke-linejoin:miter;stroke-opacity:1" />
    <path
       d="M 85.026857 122.202112 L 85.018352 85.090644 "
       fill="none"
       id="path32"
       style="stroke:#00ff00;stroke-width:0.254;stroke-linecap:butt;stroke-linejoin:miter;stroke-opacity:1" />
    <path
       d="M 85.048677 217.417033 L 85.048662 217.349552 "
       fill="none"
       id="path33"
       style="stroke:#00ff00;stroke-width:0.254;stroke-linecap:butt;stroke-linejoin:miter;stroke-opacity:1" />
    <path
       d="M 5.048664 217.367885 L 5.048679 217.435367 "
       fill="none"
       id="path34"
       style="stroke:#00ff00;stroke-width:0.254;stroke-linecap:butt;stroke-linejoin:miter;stroke-opacity:1" />
    <path
       d="M 596.838364 205.000386 L 676.838364 205.000386 "
       fill="none"
       id="path35"
       style="stroke:#00ff00;stroke-width:0.254;stroke-linecap:butt;stroke-linejoin:miter;stroke-opacity:1" />
    <path
       d="M 676.838364 5.000000 L 596.838364 5.000000 "
       fill="none"
       id="path36"
       style="stroke:#00ff00;stroke-width:0.254;stroke-linecap:butt;stroke-linejoin:miter;stroke-opacity:1" />
    <path
       d="M 308.565018 180.860182 L 304.596617 177.612586 L 289.969490 143.759490 L 288.925123 136.765971 L 272.411291 124.543444 L 265.417773 125.587811 L 211.469482 125.499925 L 204.626089 123.720045 L 186.396842 134.424103 L 184.616961 141.267496 L 162.383719 170.981870 L 157.384265 165.981325 L 123.066265 165.977581 L 118.065720 170.977035 L 108.539854 178.913496 L 103.541000 183.914642 L 103.547515 212.345312 L 108.548661 217.344166 L 108.560654 217.410573 L 121.061792 222.407787 L 303.562150 222.367102 L 308.561035 217.365987 L 388.561034 217.374715 L 401.058852 222.380229 L 583.559196 222.460735 L 588.561401 217.462941 L 588.573408 217.396537 L 593.575644 212.398774 L 593.588364 183.968106 L 588.590601 178.965869 L 579.066467 171.027330 L 574.067012 166.026785 L 539.749013 166.023041 L 534.748467 171.022495 L 512.521709 141.303270 L 510.743322 134.459489 L 492.516411 123.751454 L 485.672630 125.529841 L 431.724322 125.605955 L 424.731031 124.560062 L 408.214533 136.778986 L 407.168639 143.772276 L 392.534126 177.622180 L 388.565017 180.868910 "
       fill="none"
       id="path37"
       style="stroke:#ff0000;stroke-width:0.254;stroke-linecap:butt;stroke-linejoin:miter;stroke-opacity:1" />
    <path
       d="M 388.561041 217.309285 L 388.565393 177.423802 L 393.567645 156.779929 L 393.568871 145.546374 L 388.569416 140.545829 L 388.572749 110.000834 L 383.573294 105.000288 L 315.987792 104.992915 L 308.572749 109.992106 L 308.569417 140.537101 L 303.568871 145.536555 L 303.567646 156.770110 L 308.565393 177.415074 L 308.561042 217.300557 "
       fill="none"
       id="path38"
       style="stroke:#ff0000;stroke-width:0.254;stroke-linecap:butt;stroke-linejoin:miter;stroke-opacity:1" />
    <path
       d="M 85.048662 217.349552 L 85.039854 178.918881 L 90.038708 173.917736 L 90.038448 172.782005 L 85.037013 166.520110 L 85.026857 122.202112 L 90.025711 117.200966 L 90.019497 90.089498 L 85.018352 85.090644 L 85.011215 53.951054 L 90.009160 44.980477 L 89.999998 5.001547 L 84.998852 0.002693 L 4.998854 0.021026 L 0.000000 5.022172 L 0.009162 45.001102 L 5.011217 53.969387 L 5.018354 85.108978 L 0.019500 90.110123 L 0.025713 117.221591 L 5.026859 122.220445 L 5.037015 166.538444 L 0.038450 172.802631 L 0.038711 173.938361 L 5.039856 178.937215 L 5.048664 217.367885 L 0.048672 217.402772 L 5.048679 217.435367 L 85.048677 217.417033 L 90.048669 217.382147 z"
       fill="none"
       id="path39"
       style="stroke:#ff0000;stroke-width:0.254;stroke-linecap:butt;stroke-linejoin:miter;stroke-opacity:1" />
    <path
       d="M 596.838364 5.000000 L 596.838364 205.000386 L 636.838364 210.000386 L 676.838364 205.000386 L 676.838364 5.000000 L 636.838364 0.000000 z"
       fill="none"
       id="path40"
       style="stroke:#ff0000;stroke-width:0.254;stroke-linecap:butt;stroke-linejoin:miter;stroke-opacity:1" />
  </g>
</svg>
